solid ASCII
  facet normal -0.000000e+00 9.999988e-01 1.572448e-03
    outer loop
      vertex   1.970810e+01 7.010000e+01 0.000000e+00
      vertex   1.968473e+01 7.007327e+01 1.700000e+01
      vertex   2.045352e+01 7.010000e+01 0.000000e+00
    endloop
  endfacet
  facet normal 0.000000e+00 9.999988e-01 1.572448e-03
    outer loop
      vertex   2.045352e+01 7.010000e+01 0.000000e+00
      vertex   1.968473e+01 7.007327e+01 1.700000e+01
      vertex   2.048409e+01 7.007327e+01 1.700000e+01
    endloop
  endfacet
  facet normal 0.000000e+00 0.000000e+00 -1.000000e+00
    outer loop
      vertex   2.050000e+01 6.901116e+01 0.000000e+00
      vertex   2.045352e+01 7.010000e+01 0.000000e+00
      vertex   2.050000e+01 7.550000e+01 0.000000e+00
    endloop
  endfacet
  facet normal 0.000000e+00 0.000000e+00 -1.000000e+00
    outer loop
      vertex   2.050000e+01 7.550000e+01 0.000000e+00
      vertex   2.045352e+01 7.010000e+01 0.000000e+00
      vertex   2.003106e+01 7.046937e+01 0.000000e+00
    endloop
  endfacet
  facet normal -0.000000e+00 0.000000e+00 -1.000000e+00
    outer loop
      vertex   2.050000e+01 7.550000e+01 0.000000e+00
      vertex   2.003106e+01 7.046937e+01 0.000000e+00
      vertex   1.950000e+01 7.550000e+01 0.000000e+00
    endloop
  endfacet
  facet normal 0.000000e+00 0.000000e+00 -1.000000e+00
    outer loop
      vertex   1.950000e+01 7.550000e+01 0.000000e+00
      vertex   2.003106e+01 7.046937e+01 0.000000e+00
      vertex   1.970810e+01 7.010000e+01 0.000000e+00
    endloop
  endfacet
  facet normal 0.000000e+00 0.000000e+00 -1.000000e+00
    outer loop
      vertex   1.950000e+01 7.550000e+01 0.000000e+00
      vertex   1.970810e+01 7.010000e+01 0.000000e+00
      vertex   1.950000e+01 6.901116e+01 0.000000e+00
    endloop
  endfacet
  facet normal 0.000000e+00 0.000000e+00 -1.000000e+00
    outer loop
      vertex   1.950000e+01 6.901116e+01 0.000000e+00
      vertex   1.970810e+01 7.010000e+01 0.000000e+00
      vertex   2.050000e+01 6.901116e+01 0.000000e+00
    endloop
  endfacet
  facet normal 0.000000e+00 0.000000e+00 -1.000000e+00
    outer loop
      vertex   2.050000e+01 6.901116e+01 0.000000e+00
      vertex   1.970810e+01 7.010000e+01 0.000000e+00
      vertex   2.045352e+01 7.010000e+01 0.000000e+00
    endloop
  endfacet
  facet normal -6.582204e-01 -7.528253e-01 1.558332e-16
    outer loop
      vertex   2.048409e+01 7.007327e+01 1.700000e+01
      vertex   2.003106e+01 7.046937e+01 1.700000e+01
      vertex   2.045352e+01 7.010000e+01 0.000000e+00
    endloop
  endfacet
  facet normal -6.582204e-01 -7.528253e-01 0.000000e+00
    outer loop
      vertex   2.045352e+01 7.010000e+01 0.000000e+00
      vertex   2.003106e+01 7.046937e+01 1.700000e+01
      vertex   2.003106e+01 7.046937e+01 0.000000e+00
    endloop
  endfacet
  facet normal 7.528253e-01 -6.582204e-01 1.008488e-17
    outer loop
      vertex   1.968473e+01 7.007327e+01 1.700000e+01
      vertex   1.970810e+01 7.010000e+01 0.000000e+00
      vertex   2.003106e+01 7.046937e+01 1.700000e+01
    endloop
  endfacet
  facet normal 7.528253e-01 -6.582204e-01 0.000000e+00
    outer loop
      vertex   2.003106e+01 7.046937e+01 1.700000e+01
      vertex   1.970810e+01 7.010000e+01 0.000000e+00
      vertex   2.003106e+01 7.046937e+01 0.000000e+00
    endloop
  endfacet
  facet normal 0.000000e+00 0.000000e+00 -1.000000e+00
    outer loop
      vertex   2.048409e+01 7.007327e+01 1.700000e+01
      vertex   1.968473e+01 7.007327e+01 1.700000e+01
      vertex   2.003106e+01 7.046937e+01 1.700000e+01
    endloop
  endfacet
  facet normal 1.000000e+00 0.000000e+00 0.000000e+00
    outer loop
      vertex   2.050000e+01 7.900000e+01 1.800000e+01
      vertex   2.050000e+01 7.101116e+01 1.800000e+01
      vertex   2.050000e+01 7.550000e+01 1.500000e+01
    endloop
  endfacet
  facet normal 1.000000e+00 0.000000e+00 0.000000e+00
    outer loop
      vertex   2.050000e+01 7.550000e+01 1.500000e+01
      vertex   2.050000e+01 7.101116e+01 1.800000e+01
      vertex   2.050000e+01 6.901116e+01 1.600000e+01
    endloop
  endfacet
  facet normal 1.000000e+00 0.000000e+00 0.000000e+00
    outer loop
      vertex   2.050000e+01 7.550000e+01 1.500000e+01
      vertex   2.050000e+01 6.901116e+01 1.600000e+01
      vertex   2.050000e+01 6.901116e+01 0.000000e+00
    endloop
  endfacet
  facet normal 1.000000e+00 0.000000e+00 0.000000e+00
    outer loop
      vertex   2.050000e+01 6.901116e+01 0.000000e+00
      vertex   2.050000e+01 7.550000e+01 0.000000e+00
      vertex   2.050000e+01 7.550000e+01 1.500000e+01
    endloop
  endfacet
  facet normal 1.000000e+00 0.000000e+00 0.000000e+00
    outer loop
      vertex   2.050000e+01 7.550000e+01 1.500000e+01
      vertex   2.050000e+01 8.000000e+01 1.500000e+01
      vertex   2.050000e+01 7.900000e+01 1.800000e+01
    endloop
  endfacet
  facet normal 1.000000e+00 0.000000e+00 0.000000e+00
    outer loop
      vertex   2.050000e+01 7.900000e+01 1.800000e+01
      vertex   2.050000e+01 8.000000e+01 1.500000e+01
      vertex   2.050000e+01 8.000000e+01 1.700000e+01
    endloop
  endfacet
  facet normal 0.000000e+00 -7.071068e-01 7.071068e-01
    outer loop
      vertex   2.050000e+01 7.101116e+01 1.800000e+01
      vertex   1.950000e+01 7.101116e+01 1.800000e+01
      vertex   2.050000e+01 6.901116e+01 1.600000e+01
    endloop
  endfacet
  facet normal 0.000000e+00 -7.071068e-01 7.071068e-01
    outer loop
      vertex   2.050000e+01 6.901116e+01 1.600000e+01
      vertex   1.950000e+01 7.101116e+01 1.800000e+01
      vertex   1.950000e+01 6.901116e+01 1.600000e+01
    endloop
  endfacet
  facet normal -0.000000e+00 7.071068e-01 7.071068e-01
    outer loop
      vertex   1.950000e+01 7.900000e+01 1.800000e+01
      vertex   2.050000e+01 7.900000e+01 1.800000e+01
      vertex   1.950000e+01 8.000000e+01 1.700000e+01
    endloop
  endfacet
  facet normal -0.000000e+00 7.071068e-01 7.071068e-01
    outer loop
      vertex   1.950000e+01 8.000000e+01 1.700000e+01
      vertex   2.050000e+01 7.900000e+01 1.800000e+01
      vertex   2.050000e+01 8.000000e+01 1.700000e+01
    endloop
  endfacet
  facet normal 0.000000e+00 0.000000e+00 1.000000e+00
    outer loop
      vertex   2.050000e+01 7.900000e+01 1.800000e+01
      vertex   1.950000e+01 7.900000e+01 1.800000e+01
      vertex   2.050000e+01 7.101116e+01 1.800000e+01
    endloop
  endfacet
  facet normal 0.000000e+00 0.000000e+00 1.000000e+00
    outer loop
      vertex   2.050000e+01 7.101116e+01 1.800000e+01
      vertex   1.950000e+01 7.900000e+01 1.800000e+01
      vertex   1.950000e+01 7.101116e+01 1.800000e+01
    endloop
  endfacet
  facet normal -1.000000e+00 0.000000e+00 0.000000e+00
    outer loop
      vertex   1.950000e+01 7.550000e+01 0.000000e+00
      vertex   1.950000e+01 6.901116e+01 0.000000e+00
      vertex   1.950000e+01 7.550000e+01 1.500000e+01
    endloop
  endfacet
  facet normal -1.000000e+00 -0.000000e+00 0.000000e+00
    outer loop
      vertex   1.950000e+01 7.550000e+01 1.500000e+01
      vertex   1.950000e+01 6.901116e+01 0.000000e+00
      vertex   1.950000e+01 6.901116e+01 1.600000e+01
    endloop
  endfacet
  facet normal -1.000000e+00 0.000000e+00 0.000000e+00
    outer loop
      vertex   1.950000e+01 7.550000e+01 1.500000e+01
      vertex   1.950000e+01 6.901116e+01 1.600000e+01
      vertex   1.950000e+01 7.101116e+01 1.800000e+01
    endloop
  endfacet
  facet normal -1.000000e+00 0.000000e+00 0.000000e+00
    outer loop
      vertex   1.950000e+01 7.101116e+01 1.800000e+01
      vertex   1.950000e+01 7.900000e+01 1.800000e+01
      vertex   1.950000e+01 7.550000e+01 1.500000e+01
    endloop
  endfacet
  facet normal -1.000000e+00 0.000000e+00 0.000000e+00
    outer loop
      vertex   1.950000e+01 7.550000e+01 1.500000e+01
      vertex   1.950000e+01 7.900000e+01 1.800000e+01
      vertex   1.950000e+01 8.000000e+01 1.500000e+01
    endloop
  endfacet
  facet normal -1.000000e+00 0.000000e+00 0.000000e+00
    outer loop
      vertex   1.950000e+01 8.000000e+01 1.500000e+01
      vertex   1.950000e+01 7.900000e+01 1.800000e+01
      vertex   1.950000e+01 8.000000e+01 1.700000e+01
    endloop
  endfacet
  facet normal 0.000000e+00 -1.000000e+00 0.000000e+00
    outer loop
      vertex   1.950000e+01 6.901116e+01 1.600000e+01
      vertex   1.950000e+01 6.901116e+01 0.000000e+00
      vertex   2.050000e+01 6.901116e+01 1.600000e+01
    endloop
  endfacet
  facet normal 0.000000e+00 -1.000000e+00 -0.000000e+00
    outer loop
      vertex   2.050000e+01 6.901116e+01 1.600000e+01
      vertex   1.950000e+01 6.901116e+01 0.000000e+00
      vertex   2.050000e+01 6.901116e+01 0.000000e+00
    endloop
  endfacet
  facet normal 0.000000e+00 1.000000e+00 0.000000e+00
    outer loop
      vertex   2.050000e+01 7.550000e+01 1.500000e+01
      vertex   2.050000e+01 7.550000e+01 0.000000e+00
      vertex   1.950000e+01 7.550000e+01 1.500000e+01
    endloop
  endfacet
  facet normal 0.000000e+00 1.000000e+00 0.000000e+00
    outer loop
      vertex   1.950000e+01 7.550000e+01 1.500000e+01
      vertex   2.050000e+01 7.550000e+01 0.000000e+00
      vertex   1.950000e+01 7.550000e+01 0.000000e+00
    endloop
  endfacet
  facet normal -0.000000e+00 -0.000000e+00 -1.000000e+00
    outer loop
      vertex   2.050000e+01 8.000000e+01 1.500000e+01
      vertex   2.050000e+01 7.550000e+01 1.500000e+01
      vertex   1.950000e+01 8.000000e+01 1.500000e+01
    endloop
  endfacet
  facet normal 0.000000e+00 0.000000e+00 -1.000000e+00
    outer loop
      vertex   1.950000e+01 8.000000e+01 1.500000e+01
      vertex   2.050000e+01 7.550000e+01 1.500000e+01
      vertex   1.950000e+01 7.550000e+01 1.500000e+01
    endloop
  endfacet
  facet normal 0.000000e+00 1.000000e+00 0.000000e+00
    outer loop
      vertex   2.050000e+01 8.000000e+01 1.700000e+01
      vertex   2.050000e+01 8.000000e+01 1.500000e+01
      vertex   1.950000e+01 8.000000e+01 1.700000e+01
    endloop
  endfacet
  facet normal 0.000000e+00 1.000000e+00 0.000000e+00
    outer loop
      vertex   1.950000e+01 8.000000e+01 1.700000e+01
      vertex   2.050000e+01 8.000000e+01 1.500000e+01
      vertex   1.950000e+01 8.000000e+01 1.500000e+01
    endloop
  endfacet
endsolid
